REM DIRINDEX 1\2,1\4,1\5,1\6,1\7,1\3\8,1\3\9,1\3\10
REM DIRNAME cjc113,folder01,folder02,folder03,folder04,folder05,folder06,folder07,folder08,folder09
TITLE ""
FILE "DB4500_5th_6C_26.mp3" MP3
  TRACK 01 AUDIO
    TITLE "0:"
    INDEX 01 00:00:00
  TRACK 02 AUDIO
    TITLE "8:cjc113_4331"
    INDEX 01 00:00:01
  TRACK 03 AUDIO
    TITLE "0:"
    INDEX 01 00:01:30
  TRACK 04 AUDIO
    TITLE "9:cjc113_4332"
    INDEX 01 00:01:44
  TRACK 05 AUDIO
    TITLE "0:"
    INDEX 01 00:03:12
  TRACK 06 AUDIO
    TITLE "10:cjc113_4333"
    INDEX 01 00:03:31
  TRACK 07 AUDIO
    TITLE "0:"
    INDEX 01 00:07:45
  TRACK 08 AUDIO
    TITLE "8:cjc113_4334"
    INDEX 01 00:08:11
  TRACK 09 AUDIO
    TITLE "0:"
    INDEX 01 00:09:26
  TRACK 10 AUDIO
    TITLE "9:cjc113_4335"
    INDEX 01 00:09:44
  TRACK 11 AUDIO
    TITLE "0:"
    INDEX 01 00:10:74
  TRACK 12 AUDIO
    TITLE "10:cjc113_4336"
    INDEX 01 00:11:17
  TRACK 13 AUDIO
    TITLE "0:"
    INDEX 01 00:16:00
  TRACK 14 AUDIO
    TITLE "8:cjc113_4337"
    INDEX 01 00:16:40
  TRACK 15 AUDIO
    TITLE "0:"
    INDEX 01 00:17:69
  TRACK 16 AUDIO
    TITLE "9:cjc113_4338"
    INDEX 01 00:18:11
  TRACK 17 AUDIO
    TITLE "0:"
    INDEX 01 00:19:20
  TRACK 18 AUDIO
    TITLE "10:cjc113_4339"
    INDEX 01 00:19:34
  TRACK 19 AUDIO
    TITLE "0:"
    INDEX 01 00:22:38
  TRACK 20 AUDIO
    TITLE "8:cjc113_4340"
    INDEX 01 00:23:03
  TRACK 21 AUDIO
    TITLE "0:"
    INDEX 01 00:24:25
  TRACK 22 AUDIO
    TITLE "9:cjc113_4341"
    INDEX 01 00:24:43
  TRACK 23 AUDIO
    TITLE "0:"
    INDEX 01 00:25:66
  TRACK 24 AUDIO
    TITLE "10:cjc113_4342"
    INDEX 01 00:26:05
  TRACK 25 AUDIO
    TITLE "0:"
    INDEX 01 00:29:42
  TRACK 26 AUDIO
    TITLE "8:cjc113_4343"
    INDEX 01 00:30:10
  TRACK 27 AUDIO
    TITLE "0:"
    INDEX 01 00:31:24
  TRACK 28 AUDIO
    TITLE "9:cjc113_4344"
    INDEX 01 00:31:41
  TRACK 29 AUDIO
    TITLE "0:"
    INDEX 01 00:32:45
  TRACK 30 AUDIO
    TITLE "10:cjc113_4345"
    INDEX 01 00:32:66
  TRACK 31 AUDIO
    TITLE "0:"
    INDEX 01 00:37:10
  TRACK 32 AUDIO
    TITLE "8:cjc113_4346"
    INDEX 01 00:37:50
  TRACK 33 AUDIO
    TITLE "0:"
    INDEX 01 00:38:59
  TRACK 34 AUDIO
    TITLE "9:cjc113_4347"
    INDEX 01 00:38:69
  TRACK 35 AUDIO
    TITLE "0:"
    INDEX 01 00:40:21
  TRACK 36 AUDIO
    TITLE "10:cjc113_4348"
    INDEX 01 00:40:28
  TRACK 37 AUDIO
    TITLE "0:"
    INDEX 01 00:43:09
  TRACK 38 AUDIO
    TITLE "8:cjc113_4349"
    INDEX 01 00:43:40
  TRACK 39 AUDIO
    TITLE "0:"
    INDEX 01 00:45:02
  TRACK 40 AUDIO
    TITLE "9:cjc113_4350"
    INDEX 01 00:45:10
  TRACK 41 AUDIO
    TITLE "0:"
    INDEX 01 00:46:35
  TRACK 42 AUDIO
    TITLE "10:cjc113_4351"
    INDEX 01 00:46:41
  TRACK 43 AUDIO
    TITLE "0:"
    INDEX 01 00:49:65
  TRACK 44 AUDIO
    TITLE "8:cjc113_4352"
    INDEX 01 00:50:23
  TRACK 45 AUDIO
    TITLE "0:"
    INDEX 01 00:51:48
  TRACK 46 AUDIO
    TITLE "9:cjc113_4353"
    INDEX 01 00:51:56
  TRACK 47 AUDIO
    TITLE "0:"
    INDEX 01 00:53:06
  TRACK 48 AUDIO
    TITLE "10:cjc113_4354"
    INDEX 01 00:53:11
  TRACK 49 AUDIO
    TITLE "0:"
    INDEX 01 00:56:57
  TRACK 50 AUDIO
    TITLE "8:cjc113_4355"
    INDEX 01 00:57:13
  TRACK 51 AUDIO
    TITLE "0:"
    INDEX 01 00:58:22
  TRACK 52 AUDIO
    TITLE "9:cjc113_4356"
    INDEX 01 00:58:28
  TRACK 53 AUDIO
    TITLE "0:"
    INDEX 01 00:59:43
  TRACK 54 AUDIO
    TITLE "10:cjc113_4357"
    INDEX 01 00:59:45
  TRACK 55 AUDIO
    TITLE "0:"
    INDEX 01 01:03:51
  TRACK 56 AUDIO
    TITLE "8:cjc113_4358"
    INDEX 01 01:04:07
  TRACK 57 AUDIO
    TITLE "0:"
    INDEX 01 01:05:30
  TRACK 58 AUDIO
    TITLE "9:cjc113_4359"
    INDEX 01 01:05:38
  TRACK 59 AUDIO
    TITLE "0:"
    INDEX 01 01:06:57
  TRACK 60 AUDIO
    TITLE "10:cjc113_4360"
    INDEX 01 01:06:69
  TRACK 61 AUDIO
    TITLE "0:"
    INDEX 01 01:11:15
  TRACK 62 AUDIO
    TITLE "8:cjc113_4361"
    INDEX 01 01:11:45
  TRACK 63 AUDIO
    TITLE "0:"
    INDEX 01 01:13:02
  TRACK 64 AUDIO
    TITLE "9:cjc113_4362"
    INDEX 01 01:13:10
  TRACK 65 AUDIO
    TITLE "0:"
    INDEX 01 01:14:25
  TRACK 66 AUDIO
    TITLE "10:cjc113_4363"
    INDEX 01 01:14:31
  TRACK 67 AUDIO
    TITLE "0:"
    INDEX 01 01:18:47
  TRACK 68 AUDIO
    TITLE "8:cjc113_4364"
    INDEX 01 01:19:03
  TRACK 69 AUDIO
    TITLE "0:"
    INDEX 01 01:20:12
  TRACK 70 AUDIO
    TITLE "9:cjc113_4365"
    INDEX 01 01:20:20
  TRACK 71 AUDIO
    TITLE "0:"
    INDEX 01 01:21:31
  TRACK 72 AUDIO
    TITLE "10:cjc113_4366"
    INDEX 01 01:21:39
  TRACK 73 AUDIO
    TITLE "0:"
    INDEX 01 01:25:13
  TRACK 74 AUDIO
    TITLE "8:cjc113_4367"
    INDEX 01 01:25:45
  TRACK 75 AUDIO
    TITLE "0:"
    INDEX 01 01:26:74
  TRACK 76 AUDIO
    TITLE "9:cjc113_4368"
    INDEX 01 01:27:10
  TRACK 77 AUDIO
    TITLE "0:"
    INDEX 01 01:28:33
  TRACK 78 AUDIO
    TITLE "10:cjc113_4369"
    INDEX 01 01:28:41
  TRACK 79 AUDIO
    TITLE "0:"
    INDEX 01 01:31:24
